# xmcd
#
# Track frame offsets:
#	150
#	15158
#	27717
#	41189
#	59473
#	76624
#	88668
#	105911
#	120120
#	133974
#
# Disc length: 2074 seconds
#
# Revision: 2
# Processed by: cddbd v1.5PL3 Copyright (c) Steve Scherf et al.
# Submitted via: EasyCDDAExtractor 6.5.0.1
#
DISCID=7208180a
DTITLE=Faith Hill - Take Me As I Am
DYEAR=1994
DGENRE=Country
TTITLE0=Take Me As I Am
TTITLE1=Wild One
TTITLE2=Just About Now
TTITLE3=Piece Of My Heart
TTITLE4=I've Got This Friend
TTITLE5=Life's Too Short To Love Like That
TTITLE6=But I Will
TTITLE7=Just Around The Eyes
TTITLE8=Go The Distance
TTITLE9=I Would Be Stronger Than That
EXTD=
EXTT0=
EXTT1=
EXTT2=
EXTT3=
EXTT4=
EXTT5=
EXTT6=
EXTT7=
EXTT8=
EXTT9=
PLAYORDER=
